# xmcd
#
# Track frame offsets:
#	150
#	23370
#	39736
#	62608
#	94124
#	109966
#	121170
#	139830
#	154558
#	173166
#	190267
#	207463
#	222640
#	244752
#	258782
#
# Disc length: 3650 seconds
#
# Revision: 2
# Processed by: cddbd v1.5.2PL0 Copyright (c) Steve Scherf et al.
# Submitted via: EasyCDDAExtractor 2010.6.0.0
#
DISCID=d00e400f
DTITLE=Various Artist - AMIGOS PRA VALER - CD 03 [2001] SOM LIVRE
DYEAR=2001
DGENRE=SERTANEJO
TTITLE0=ZEZÉ DI CAMARGO and LUCIANO -  DEUS SALVE A AMÉRICA (BY DJ GILMAR SINIST
TTITLE0=RO)
TTITLE1=LEANDRO and LEONARDO - PENSE EM MIM (BY DJ GILMAR SINISTRO)
TTITLE2=CHITÃOZINHO and XORORÓ - UM HOMEM QUANDO AMA [HAVE YOU EVER REALLY LOVED
TTITLE2=A WOMAN] (BY DJ GILMAR SINISTRO)
TTITLE3=JOÃO PAULO and DANIEL - CHITÃOZINHO and XORORÓ - ESTOU APAIXONADO [ESTOY E
TTITLE3=NAMORADO] - EVIDENCIAS (BY DJ GILMAR SINISTRO)
TTITLE4=LEANDRO and LEONARDO - ENTRE TAPAS E BEIJOS (BY DJ GILMAR SINISTRO)
TTITLE5=CHITÃOZINHO and XORORÓ - PRELÚDIO PRA NINAR GENTE GRANDE [MENINO PASSARI
TTITLE5=NHO] (BY DJ GILMAR SINISTRO)
TTITLE6=ROBERTA MIRANDA - CHITÃOZINHO and XORORÓ - MAJESTADE O SABIÁ (BY DJ GILM
TTITLE6=AR SINISTRO)
TTITLE7=LEONARDO - CUMPADE E CUMPADE (BY DJ GILMAR SINISTRO)
TTITLE8=ZEZÉ DI CAMARGO and LUCIANO - INDIFERENÇA (BY DJ GILMAR SINISTRO)
TTITLE9=CHITÃOZINHO and XORORÓ - BRINCAR DE SER FELIZ (BY DJ GILMAR SINISTRO)
TTITLE10=ZEZÉ DI CAMARGO and LUCIANO - TOMA JUIZO (BY DJ GILMAR SINISTRO)
TTITLE11=LEANDRO and LEONARDO - MEXE MEXE (BY DJ GILMAR SINISTRO)
TTITLE12=CHITÃOZINHO and XORORÓ - O HOMEM DE NAZARETH (BY DJ GILMAR SINISTRO)
TTITLE13=CHITÃOZINHO and XORORÓ - LEONARDO - ZEZÉ DI CAMARGO and LUCIANO - VIOLA E
TTITLE13=NLUARADA (BY DJ GILMAR SINISTRO)
TTITLE14=CHITÃOZINHO and XORORÓ - LEANDRO and LEONARDO - ZEZÉ DI CAMARGO and LUCIANO
TTITLE14=ANDANÇA (BY DJ GILMAR SINISTRO)
EXTD=
EXTT0=
EXTT1=
EXTT2=
EXTT3=
EXTT4=
EXTT5=
EXTT6=
EXTT7=
EXTT8=
EXTT9=
EXTT10=
EXTT11=
EXTT12=
EXTT13=
EXTT14=
PLAYORDER=
